<svg width="584" height="52" viewBox="0 0 584 52" fill="none" xmlns="http://www.w3.org/2000/svg">
<path d="M21.1797 38L5.81641 22.2324V38H0.762695V3.5H5.81641V19.5146L19.3828 3.5H25.4248L10.9824 20.6602L27.6709 38H21.1797ZM46.8328 34.5859C44.4819 37.0716 41.4796 38.3145 37.8259 38.3145C34.1873 38.3145 31.185 37.0716 28.8191 34.5859C26.4532 32.0853 25.2703 28.9932 25.2703 25.3096C25.2703 21.626 26.4532 18.5339 28.8191 16.0332C31.185 13.5326 34.1873 12.2822 37.8259 12.2822C41.4796 12.2822 44.4819 13.5326 46.8328 16.0332C49.1987 18.5339 50.3816 21.626 50.3816 25.3096C50.3816 28.9932 49.1987 32.0853 46.8328 34.5859ZM32.5252 31.2393C33.8878 32.8265 35.6547 33.6201 37.8259 33.6201C40.0121 33.6201 41.7865 32.8265 43.1492 31.2393C44.5118 29.637 45.1931 27.6605 45.1931 25.3096C45.1931 22.9137 44.5118 20.9222 43.1492 19.335C41.7865 17.7327 40.0121 16.9316 37.8259 16.9316C35.6547 16.9316 33.8878 17.7327 32.5252 19.335C31.1625 20.9222 30.4812 22.9137 30.4812 25.3096C30.4812 27.6755 31.1625 29.652 32.5252 31.2393ZM68.5974 12.417L68.5525 17.0215C65.6625 16.9017 63.394 17.5081 61.7468 18.8408C60.1147 20.1735 59.2986 22.2998 59.2986 25.2197V38H54.0203V12.709H58.8494L59.2986 16.9316C59.8526 15.6139 60.8709 14.5208 62.3533 13.6523C63.8507 12.7689 65.9321 12.3571 68.5974 12.417ZM83.5564 38.0449C80.8012 38.0449 78.6824 37.5433 77.2 36.54C75.7325 35.5218 74.9988 33.5228 74.9988 30.543L75.0437 16.752H70.9558V12.6191H75.0437V3.5H80.03V12.6191H86.2742V16.7969L79.9177 16.752V30.0938C79.9177 31.3516 80.1873 32.2725 80.7263 32.8564C81.2654 33.4404 82.2087 33.7324 83.5564 33.7324H86.4988V38.0449H83.5564ZM103.603 12.3721C106.418 12.3721 108.649 13.1956 110.297 14.8428C111.959 16.4749 112.79 18.736 112.79 21.626V38H107.511V22.2324C107.511 20.6003 107.032 19.3275 106.074 18.4141C105.131 17.4857 103.813 17.0215 102.121 17.0215C100.309 17.0215 98.7442 17.5381 97.4265 18.5713C96.1088 19.5895 95.4499 20.8997 95.4499 22.502V38H90.1716V12.709H94.821L95.2253 16.2354C96.1387 15.0374 97.3516 14.0941 98.864 13.4053C100.391 12.7165 101.971 12.3721 103.603 12.3721ZM122.628 8.53125C122.044 9.10026 121.347 9.38477 120.539 9.38477C119.745 9.38477 119.056 9.10026 118.472 8.53125C117.903 7.96224 117.619 7.26595 117.619 6.44238C117.619 5.61882 117.903 4.91504 118.472 4.33105C119.056 3.74707 119.745 3.45508 120.539 3.45508C121.347 3.45508 122.044 3.74707 122.628 4.33105C123.212 4.91504 123.504 5.61882 123.504 6.44238C123.504 7.26595 123.212 7.96224 122.628 8.53125ZM117.978 12.709H123.167V38H117.978V12.709ZM158.88 20.0088C160.931 20.5029 162.578 21.5286 163.821 23.0859C165.064 24.6283 165.685 26.515 165.685 28.7461C165.685 31.5013 164.757 33.7324 162.9 35.4395C161.043 37.1465 158.737 38 155.982 38H140.147V3.5H153.961C156.746 3.5 159.074 4.35352 160.946 6.06055C162.818 7.7526 163.754 9.98372 163.754 12.7539C163.754 14.5658 163.304 16.1081 162.406 17.3809C161.523 18.6387 160.347 19.5146 158.88 20.0088ZM158.745 13.248C158.745 11.7806 158.221 10.5228 157.173 9.47461C156.124 8.41146 154.867 7.87988 153.399 7.87988H145.111V18.2119H153.399C154.897 18.2119 156.162 17.7477 157.195 16.8193C158.228 15.876 158.745 14.6855 158.745 13.248ZM155.286 33.5303C156.783 33.5303 158.056 33.0062 159.104 31.958C160.152 30.8949 160.676 29.6296 160.676 28.1621C160.676 26.6647 160.145 25.3171 159.082 24.1191C158.019 22.9212 156.753 22.3223 155.286 22.3223H145.111V33.5303H155.286ZM189.539 34.5859C187.188 37.0716 184.186 38.3145 180.532 38.3145C176.893 38.3145 173.891 37.0716 171.525 34.5859C169.159 32.0853 167.976 28.9932 167.976 25.3096C167.976 21.626 169.159 18.5339 171.525 16.0332C173.891 13.5326 176.893 12.2822 180.532 12.2822C184.186 12.2822 187.188 13.5326 189.539 16.0332C191.905 18.5339 193.088 21.626 193.088 25.3096C193.088 28.9932 191.905 32.0853 189.539 34.5859ZM175.231 31.2393C176.594 32.8265 178.361 33.6201 180.532 33.6201C182.718 33.6201 184.493 32.8265 185.855 31.2393C187.218 29.637 187.899 27.6605 187.899 25.3096C187.899 22.9137 187.218 20.9222 185.855 19.335C184.493 17.7327 182.718 16.9316 180.532 16.9316C178.361 16.9316 176.594 17.7327 175.231 19.335C173.869 20.9222 173.187 22.9137 173.187 25.3096C173.187 27.6755 173.869 29.652 175.231 31.2393ZM207.665 38.0449C204.91 38.0449 202.791 37.5433 201.308 36.54C199.841 35.5218 199.107 33.5228 199.107 30.543L199.152 16.752H195.064V12.6191H199.152V3.5H204.138V12.6191H210.383V16.7969L204.026 16.752V30.0938C204.026 31.3516 204.296 32.2725 204.835 32.8564C205.374 33.4404 206.317 33.7324 207.665 33.7324H210.607V38.0449H207.665ZM225.353 38.0449C222.598 38.0449 220.479 37.5433 218.997 36.54C217.529 35.5218 216.796 33.5228 216.796 30.543L216.841 16.752H212.753V12.6191H216.841V3.5H221.827V12.6191H228.071V16.7969L221.715 16.752V30.0938C221.715 31.3516 221.984 32.2725 222.523 32.8564C223.062 33.4404 224.006 33.7324 225.353 33.7324H228.296V38.0449H225.353ZM236.932 8.53125C236.348 9.10026 235.652 9.38477 234.843 9.38477C234.05 9.38477 233.361 9.10026 232.777 8.53125C232.208 7.96224 231.923 7.26595 231.923 6.44238C231.923 5.61882 232.208 4.91504 232.777 4.33105C233.361 3.74707 234.05 3.45508 234.843 3.45508C235.652 3.45508 236.348 3.74707 236.932 4.33105C237.516 4.91504 237.808 5.61882 237.808 6.44238C237.808 7.26595 237.516 7.96224 236.932 8.53125ZM232.283 12.709H237.471V38H232.283V12.709ZM256.171 12.3721C258.986 12.3721 261.217 13.1956 262.864 14.8428C264.526 16.4749 265.357 18.736 265.357 21.626V38H260.079V22.2324C260.079 20.6003 259.6 19.3275 258.641 18.4141C257.698 17.4857 256.38 17.0215 254.688 17.0215C252.876 17.0215 251.311 17.5381 249.994 18.5713C248.676 19.5895 248.017 20.8997 248.017 22.502V38H242.739V12.709H247.388L247.793 16.2354C248.706 15.0374 249.919 14.0941 251.431 13.4053C252.959 12.7165 254.538 12.3721 256.171 12.3721ZM274.735 8.53125C274.151 9.10026 273.455 9.38477 272.646 9.38477C271.852 9.38477 271.164 9.10026 270.58 8.53125C270.011 7.96224 269.726 7.26595 269.726 6.44238C269.726 5.61882 270.011 4.91504 270.58 4.33105C271.164 3.74707 271.852 3.45508 272.646 3.45508C273.455 3.45508 274.151 3.74707 274.735 4.33105C275.319 4.91504 275.611 5.61882 275.611 6.44238C275.611 7.26595 275.319 7.96224 274.735 8.53125ZM270.086 12.709H275.274V38H270.086V12.709ZM316.086 3.5V37.9551L311.526 38L311.077 34.4961C309.145 36.9818 306.427 38.2246 302.923 38.2246C299.494 38.2246 296.702 37.0267 294.545 34.6309C292.404 32.2201 291.334 29.1729 291.334 25.4893C291.334 21.8057 292.412 18.7135 294.568 16.2129C296.739 13.7122 299.539 12.4619 302.968 12.4619C306.218 12.4619 308.861 13.7197 310.897 16.2354V3.5H316.086ZM303.844 33.8672C305.536 33.8672 307.019 33.3281 308.292 32.25C309.564 31.1719 310.433 29.7643 310.897 28.0273V22.9961C310.433 21.2441 309.564 19.8291 308.292 18.751C307.019 17.6579 305.536 17.1113 303.844 17.1113C301.673 17.1113 299.914 17.9199 298.566 19.5371C297.218 21.1393 296.544 23.1234 296.544 25.4893C296.544 27.8551 297.218 29.8467 298.566 31.4639C299.914 33.0661 301.673 33.8672 303.844 33.8672ZM341.017 34.5859C338.666 37.0716 335.664 38.3145 332.01 38.3145C328.372 38.3145 325.369 37.0716 323.003 34.5859C320.638 32.0853 319.455 28.9932 319.455 25.3096C319.455 21.626 320.638 18.5339 323.003 16.0332C325.369 13.5326 328.372 12.2822 332.01 12.2822C335.664 12.2822 338.666 13.5326 341.017 16.0332C343.383 18.5339 344.566 21.626 344.566 25.3096C344.566 28.9932 343.383 32.0853 341.017 34.5859ZM326.71 31.2393C328.072 32.8265 329.839 33.6201 332.01 33.6201C334.197 33.6201 335.971 32.8265 337.334 31.2393C338.696 29.637 339.378 27.6605 339.378 25.3096C339.378 22.9137 338.696 20.9222 337.334 19.335C335.971 17.7327 334.197 16.9316 332.01 16.9316C329.839 16.9316 328.072 17.7327 326.71 19.335C325.347 20.9222 324.666 22.9137 324.666 25.3096C324.666 27.6755 325.347 29.652 326.71 31.2393ZM370.284 25.2646C370.284 25.9984 370.254 26.5599 370.194 26.9492H351.888C352.008 29.1504 352.742 30.8949 354.089 32.1826C355.437 33.4554 357.002 34.1068 358.784 34.1367C360.341 34.1367 361.696 33.7923 362.849 33.1035C364.002 32.4147 364.826 31.4564 365.32 30.2285H369.632C369.288 32.3398 368.202 34.2116 366.376 35.8438C364.564 37.4609 362.048 38.2546 358.829 38.2246C355.235 38.2246 352.337 37.0117 350.136 34.5859C347.95 32.1452 346.857 29.068 346.857 25.3545C346.857 21.5811 347.92 18.4964 350.046 16.1006C352.188 13.7048 355.115 12.5068 358.829 12.5068C362.363 12.5068 365.155 13.6673 367.207 15.9883C369.258 18.3092 370.284 21.4014 370.284 25.2646ZM358.784 16.6621C356.852 16.6621 355.31 17.2461 354.157 18.4141C353.004 19.5671 352.278 21.1618 351.978 23.1982H365.365C365.125 21.1768 364.444 19.582 363.321 18.4141C362.198 17.2461 360.685 16.6621 358.784 16.6621ZM383.221 38.3594C380.032 38.3594 377.531 37.5358 375.719 35.8887C373.922 34.2266 372.927 32.3548 372.732 30.2734H377.247C377.486 31.4414 378.175 32.4372 379.313 33.2607C380.451 34.0843 381.724 34.4811 383.131 34.4512C384.539 34.4212 385.647 34.0693 386.456 33.3955C387.279 32.7217 387.691 31.8457 387.691 30.7676C387.691 29.6595 387.182 28.821 386.164 28.252C385.16 27.668 383.663 27.1589 381.671 26.7246C380.533 26.485 379.538 26.223 378.684 25.9385C377.846 25.639 377 25.2347 376.146 24.7256C375.293 24.2165 374.634 23.5501 374.169 22.7266C373.705 21.903 373.473 20.9372 373.473 19.8291C373.473 17.5531 374.379 15.7337 376.191 14.3711C378.003 13.0085 380.271 12.3271 382.997 12.3271C385.572 12.3271 387.743 12.971 389.51 14.2588C391.277 15.5465 392.28 17.3883 392.52 19.7842H388.05C387.841 18.6462 387.264 17.8001 386.321 17.2461C385.392 16.6921 384.412 16.3851 383.378 16.3252C382.091 16.2653 381.013 16.4899 380.144 16.999C379.291 17.5081 378.864 18.2493 378.864 19.2227C378.864 19.6868 378.984 20.1061 379.223 20.4805C379.478 20.8398 379.732 21.1318 379.987 21.3564C380.241 21.5661 380.698 21.7907 381.357 22.0303C382.016 22.2549 382.525 22.4121 382.884 22.502C383.244 22.5918 383.865 22.7415 384.749 22.9512C385.857 23.1908 386.822 23.4753 387.646 23.8047C388.47 24.1341 389.316 24.5758 390.184 25.1299C391.068 25.6689 391.749 26.3952 392.228 27.3086C392.707 28.207 392.947 29.2552 392.947 30.4531C392.947 32.7891 392.048 34.6908 390.252 36.1582C388.455 37.6257 386.111 38.3594 383.221 38.3594ZM423.267 38.57C414.147 38.57 408.067 33.25 408.067 25.27C408.067 17.29 414.147 11.97 423.267 11.97C429.993 11.97 434.895 14.744 436.947 20.254C436.947 15.884 433.945 13.072 433.945 7.068V0H438.505V38H433.869C434.819 36.708 435.959 34.732 436.491 32.414C433.983 36.29 429.271 38.57 423.267 38.57ZM423.305 16.34C414.945 16.34 409.967 20.178 409.967 25.308C409.967 30.438 414.945 34.2 423.305 34.2C431.741 34.2 436.643 30.438 436.643 25.308C436.643 20.178 431.741 16.34 423.305 16.34ZM442.319 25.27C442.319 17.29 448.399 11.97 457.557 11.97C467.893 11.97 472.757 16.834 472.757 21.394C472.757 25.422 468.653 29.032 461.167 29.032C454.517 29.032 450.033 25.46 446.499 25.46C445.055 25.46 444.371 26.676 444.599 27.702C445.929 31.54 450.489 34.2 457.519 34.2C463.523 34.2 467.133 32.794 471.693 30.514V35.796C471.693 35.796 467.703 38.57 457.557 38.57C448.399 38.57 442.319 33.25 442.319 25.27ZM444.181 24.89C445.359 23.674 447.791 22.952 450.755 22.952C455.961 22.952 459.457 25.232 465.233 25.232C469.451 25.232 470.857 23.218 470.857 21.432C470.857 18.962 467.703 16.34 458.051 16.34C449.805 16.34 444.409 19.95 444.181 24.89ZM492.664 38.608C485.9 38.608 480.048 37.05 475.792 34.504L478.376 30.324C481.188 32.376 486.204 34.238 492.816 34.238C501.404 34.238 504.52 31.692 504.52 28.5C504.52 26.942 503.228 25.574 500.72 25.574C495.932 25.574 492.55 29.032 486.014 29.032C479.022 29.032 476.096 25.612 476.096 22.154C476.096 15.238 484.76 11.97 492.398 11.97C501.404 11.97 505.812 13.984 505.812 13.984V19C501.974 17.366 497.87 16.378 492.36 16.378C485.71 16.378 478.11 17.822 478.11 22.572C478.11 24.168 479.516 25.916 481.72 25.916C486.964 25.916 490.156 22.648 497.566 22.648C501.746 22.648 506.686 24.434 506.686 29.64C506.686 35.948 498.706 38.608 492.664 38.608ZM510.175 38V12.54H514.735V38H510.175ZM508.959 6.004C508.959 3.952 510.365 2.546 512.417 2.546C514.507 2.546 515.913 3.952 515.913 6.004C515.913 8.094 514.507 9.5 512.417 9.5C510.365 9.5 508.959 8.094 508.959 6.004ZM518.579 23.978C518.579 16.074 525.457 11.97 533.931 11.97C535.413 11.97 536.857 12.084 538.225 12.35C541.949 12.35 544.723 11.058 546.053 7.676L548.789 8.626C547.497 12.122 545.027 12.996 541.113 13.11C545.977 14.82 549.283 18.506 549.283 23.978C549.283 32.832 541.113 35.986 533.513 35.986C529.181 35.986 522.455 36.366 522.455 39.976C522.455 40.85 523.215 41.914 524.469 41.914C527.965 41.914 534.007 37.202 540.885 37.202C543.887 37.202 547.079 38.95 547.079 41.952C547.079 49.096 535.185 46.398 533.399 51.224C532.487 50.996 531.803 49.894 531.803 48.792C531.803 42.978 544.761 43.548 544.761 40.964C544.761 40.356 544.343 39.938 543.355 39.938C538.871 39.938 532.259 45.41 526.445 45.41C523.595 45.41 520.555 44.042 520.555 40.736C520.555 36.898 523.633 35.302 526.749 34.846C521.885 33.136 518.579 29.45 518.579 23.978ZM520.479 23.978C520.479 28.728 526.559 31.616 533.855 31.616C541.151 31.616 547.383 28.728 547.383 23.978C547.383 19.266 541.151 16.34 533.855 16.34C526.559 16.34 520.479 19.266 520.479 23.978ZM553.072 12.54H557.632V26.6C559.988 19.912 564.966 11.97 572.604 11.97C579.862 11.97 583.282 16.682 583.282 23.18V38H578.722V23.636C578.722 19.456 577.088 16.34 571.996 16.34C562.99 16.34 557.632 26.98 557.632 34.276V38H553.072V12.54Z" fill="black"/>
</svg>
