<svg width="40" height="40" viewBox="0 0 40 40" fill="none" xmlns="http://www.w3.org/2000/svg">
<path fill-rule="evenodd" clip-rule="evenodd" d="M0 0V40H4.83019V31.08C5.35346 31.6 5.91698 31.72 6.60126 31.72C6.74399 31.72 6.88235 31.7118 7.01705 31.6969L6.99999 40H12.0137C10.9863 38.6601 9.83562 36.0197 9.26027 33.6158C11.9726 37.6355 17.0685 40 23.5616 40C23.8227 40 24.0814 39.9961 24.3377 39.9885L24.3522 40H31.4767L30.2498 39.0219C36.2844 37.0903 40 32.428 40 26.2069C40 17.931 33.4247 12.4138 23.5616 12.4138C19.409 12.4138 15.8993 13.3514 13.239 15.2192C11.7228 16.123 10.3313 17.2274 9.09492 18.4791C9.36545 17.402 9.77271 16.3698 10.1978 15.2923C11.0683 13.0861 12.0137 10.6901 12.0137 7.33005V0H7.08219L7.03927 20.8856C6.1778 22.0546 5.43564 23.3029 4.83019 24.6V0H0ZM7.03352 23.6849C6.79209 24.0167 6.56701 24.3617 6.35975 24.72C6.56324 24.5532 6.78795 24.3857 7.03242 24.2204L7.03352 23.6849ZM7.02972 25.5345C5.6068 26.1251 4.87044 27.1991 4.87044 28.2C4.87044 29.08 5.31321 29.96 6.4 29.96C6.61189 29.96 6.81801 29.9403 7.02073 29.905L7.02972 25.5345ZM9.58378 28.9186C9.26124 28.0812 9.09589 27.1859 9.09589 26.2463C9.09589 25.8524 9.12496 25.4658 9.18249 25.0876C9.29925 25.0826 9.41829 25.08 9.53962 25.08C11.8479 25.08 13.7854 25.8263 15.7773 26.5936C17.8839 27.4051 20.0513 28.24 22.7824 28.24C29.4642 28.24 32 24.32 32 20C32 19.429 31.9293 18.8872 31.7966 18.376C35.7454 19.9921 37.9452 22.8455 37.9452 26.2463C37.9452 31.1255 33.4172 34.8114 25.6926 35.389L20.4881 31.24C18.8377 29.92 16.2616 28.04 13.283 28.04C11.7451 28.04 10.5923 28.4672 9.58378 28.9186ZM10.4836 30.5792C11.9298 32.5972 14.4727 34.1271 17.9536 34.9024L14.8126 32.4C14.6414 32.2639 14.4803 32.1331 14.3266 32.0084C13.2158 31.1065 12.4934 30.52 11.1497 30.52C10.9171 30.52 10.6961 30.5417 10.4836 30.5792ZM17.3108 17.6786C18.7695 17.3848 20.252 17.24 21.6956 17.24C25.7208 17.24 29.5044 18.88 29.5044 22.4C29.5044 24.16 27.8943 24.92 26.6063 24.92C24.6338 24.92 22.9921 24.2806 21.2556 23.6044C19.3068 22.8454 17.2388 22.04 14.4503 22.04C12.7858 22.04 11.2546 22.3403 9.93192 22.7957C11.1523 20.457 13.6786 18.6324 17.3108 17.6786Z" fill="black"/>
</svg>
