<svg width="47" height="48" viewBox="0 0 47 48" fill="none" xmlns="http://www.w3.org/2000/svg">
<path d="M0.381909 25.9744C0.394799 25.1825 0.410912 24.3905 0.421386 23.5986C0.43347 22.6753 0.329541 21.7609 0.214333 20.8472C0.121683 20.1069 0.0306439 19.3657 0.00566863 18.618C-0.032197 17.47 0.121683 16.3461 0.406078 15.2359C0.769427 13.8212 1.29794 12.4693 1.92957 11.1561C2.73683 9.47869 3.59163 7.82791 4.60675 6.26414C5.17957 5.38034 5.81362 4.54649 6.55723 3.79965C7.72946 2.62259 9.10793 1.76215 10.6572 1.17564C11.827 0.732528 13.0307 0.406239 14.2689 0.217716C15.015 0.104119 15.7658 0.0372502 16.5183 0.0187202C17.3232 -0.000615441 18.1288 -0.0102832 18.9329 0.0163034C19.6982 0.0412786 20.4644 0.0904233 21.2241 0.179851C22.1377 0.287002 23.0473 0.430409 23.9537 0.588316C26.3336 1.00162 28.5717 1.82419 30.693 2.97063C31.8652 3.60387 33.031 4.24839 34.2507 4.78657C35.2747 5.23854 36.3059 5.67359 37.3332 6.1167C38.4643 6.60493 39.564 7.15116 40.5582 7.88833C42.1139 9.04203 43.3111 10.4922 44.1441 12.2421C44.5244 13.0405 44.8128 13.8743 45.0521 14.7227C45.434 16.0786 45.7981 17.4401 46.1558 18.8025C46.4008 19.7371 46.5442 20.6926 46.6884 21.6465C46.8052 22.4167 46.9011 23.1901 46.9406 23.9675C46.9824 24.7974 46.9849 25.6272 46.8995 26.4562C46.7939 27.477 46.5555 28.4711 46.3323 29.4693C46.1857 30.1235 46.0052 30.7656 45.7949 31.4013C45.7055 31.672 45.583 31.9258 45.4098 32.1546C45.3711 32.2061 45.3317 32.2577 45.2986 32.3125C44.986 32.8402 44.6267 33.3349 44.2408 33.8102C43.8179 34.3315 43.4545 34.8922 43.1202 35.4739C42.6609 36.2715 42.2017 37.0699 41.7223 37.8554C41.127 38.8318 40.4204 39.7269 39.6397 40.56C38.7825 41.4752 37.7803 42.2091 36.6693 42.7852C35.224 43.5344 33.7657 44.2571 32.2761 44.9153C31.1127 45.4293 29.8954 45.7782 28.6611 46.0738C27.8659 46.264 27.0667 46.4396 26.253 46.521C25.5811 46.5878 24.9052 46.6338 24.23 46.6531C23.4896 46.6749 22.7484 46.6628 22.008 46.6547C21.001 46.6442 20.0028 46.7417 19.0054 46.8698C17.933 47.0076 16.8623 47.1639 15.7787 47.1921C14.6403 47.2211 13.5132 47.1349 12.4119 46.8287C10.4759 46.2914 8.89443 45.2158 7.62875 43.6625C7.17517 43.1058 6.79087 42.504 6.45572 41.8716C6.02147 41.053 5.60012 40.2272 5.18279 39.3998C4.75499 38.5507 4.25468 37.7539 3.62869 37.0336C2.93905 36.2392 2.33159 35.3853 1.81597 34.466C1.20448 33.3751 0.825018 32.2078 0.621188 30.9783C0.479393 30.1195 0.393993 29.2558 0.381103 28.3849C0.371435 27.7412 0.363379 27.0975 0.358545 26.4538C0.357739 26.2927 0.371435 26.1323 0.378686 25.9712C0.379492 25.9712 0.380297 25.9712 0.381103 25.9712L0.381909 25.9744ZM4.9556 25.6755C4.9411 26.0212 4.92337 26.2846 4.92015 26.548C4.90726 27.6494 4.92176 28.7499 5.06758 29.8448C5.1836 30.7125 5.39468 31.5495 5.84423 32.3133C6.11574 32.7749 6.4098 33.2205 6.74656 33.6362C7.10347 34.0761 7.46601 34.5119 7.81405 34.9591C8.41426 35.7301 8.87107 36.5881 9.31418 37.455C9.68639 38.1825 10.0513 38.914 10.4373 39.6343C10.6226 39.9791 10.8272 40.3183 11.06 40.6325C11.7883 41.6178 12.7463 42.2639 13.958 42.5064C14.7612 42.6667 15.5725 42.6659 16.3822 42.5838C17.2595 42.4943 18.1328 42.3743 19.0086 42.2695C19.8014 42.1753 20.5965 42.0987 21.3965 42.0979C22.2723 42.0963 23.1488 42.1036 24.0246 42.0947C24.4363 42.0907 24.8488 42.0673 25.2588 42.0359C25.992 41.9803 26.7122 41.8401 27.4269 41.6718C28.5121 41.4172 29.5868 41.1304 30.6027 40.6607C31.3737 40.3046 32.1399 39.938 32.9021 39.565C33.5321 39.2572 34.1613 38.947 34.7768 38.6111C35.3609 38.2912 35.8927 37.8908 36.3438 37.397C36.9924 36.6864 37.5765 35.9266 38.0607 35.0936C38.3483 34.5981 38.6423 34.1067 38.9251 33.608C39.4238 32.7274 39.9459 31.8629 40.5807 31.0718C40.8023 30.7954 41.0206 30.5151 41.2148 30.2202C41.359 30.0019 41.4952 29.7666 41.5749 29.5193C41.7095 29.1044 41.7973 28.6742 41.9028 28.2496C42.0164 27.7952 42.0269 27.3166 42.2235 26.8816C42.2283 26.8703 42.2315 26.8566 42.2331 26.8445C42.3201 26.3168 42.3951 25.7883 42.4039 25.2526C42.4184 24.3744 42.3475 23.5027 42.2114 22.6366C42.0929 21.8809 41.9922 21.1196 41.8239 20.3735C41.5999 19.3826 41.3187 18.4053 41.0601 17.4224C40.8361 16.57 40.6065 15.7193 40.3044 14.8895C39.7187 13.2798 38.6971 12.0294 37.2228 11.1536C36.5791 10.771 35.8959 10.4721 35.2103 10.1764C34.1299 9.70911 33.0471 9.24747 31.9732 8.76569C30.8219 8.24926 29.7173 7.63858 28.6087 7.03676C27.5155 6.44299 26.3819 5.93865 25.1888 5.57853C23.368 5.02988 21.4964 4.7616 19.6064 4.61658C18.5204 4.5336 17.4319 4.55052 16.3435 4.60047C15.1197 4.65686 13.9338 4.89292 12.7688 5.26835C11.2316 5.76383 9.95628 6.62185 9.00964 7.93748C8.63018 8.46518 8.27247 9.009 7.9349 9.56409C7.19612 10.7814 6.55723 12.0528 5.95058 13.3402C5.54131 14.2087 5.18521 15.0973 4.92498 16.0238C4.69054 16.8585 4.51329 17.7028 4.57372 18.5737C4.61803 19.2086 4.69376 19.8418 4.7703 20.4742C4.88953 21.4587 4.99024 22.4449 4.98138 23.4382C4.97413 24.2108 4.96365 24.9835 4.95479 25.6747L4.9556 25.6755Z" fill="white"/>
<path d="M22.178 33.8826C19.72 33.9181 17.3747 33.4234 15.1213 32.4421C13.8903 31.9063 12.7624 31.2103 11.6941 30.407C11.4306 30.2088 11.1913 29.9849 10.9923 29.7198C10.0924 28.5218 10.5106 26.8243 11.8681 26.2402C12.739 25.8656 13.5616 25.9969 14.2867 26.6084C14.9352 27.1554 15.6321 27.6259 16.3926 27.9965C17.3433 28.4598 18.331 28.8263 19.3687 29.0495C20.3307 29.2566 21.3047 29.3105 22.286 29.3154C24.0987 29.3258 25.8357 28.9464 27.5396 28.3623C28.4976 28.0336 29.4144 27.613 30.3216 27.1683C30.5818 27.041 30.842 26.9137 31.1006 26.784C31.3423 26.6632 31.5703 26.5262 31.7846 26.3554C32.5967 25.7077 33.7367 25.7068 34.5625 26.3369C35.3859 26.9653 35.6783 28.0803 35.2707 29.0455C35.0701 29.5216 34.7486 29.9019 34.3265 30.1935C34.1049 30.3466 33.8729 30.4884 33.6336 30.6125C32.3993 31.2505 31.1602 31.8822 29.8591 32.376C28.2623 32.9827 26.6293 33.4637 24.9317 33.7029C24.1196 33.8173 23.2052 33.8786 22.1788 33.8826H22.178Z" fill="white"/>
<path d="M15.9181 17.1831C15.9318 16.2187 16.3233 15.4719 17.1943 15.0288C18.5679 14.3311 20.242 15.206 20.4459 16.7303C20.5256 17.3297 20.6006 17.9283 20.7158 18.5221C20.7585 18.742 20.8141 18.9612 20.8769 19.1763C21.3184 20.6941 20.1816 22.1773 18.605 22.1104C17.7389 22.0734 17.0992 21.6391 16.6762 20.8859C16.4885 20.5515 16.3838 20.1849 16.3177 19.8103C16.188 19.0764 16.0688 18.34 15.9503 17.6044C15.9278 17.4651 15.9286 17.3225 15.9189 17.1823L15.9181 17.1831Z" fill="white"/>
<path d="M30.577 17.2049C30.5375 17.8147 30.5173 18.427 30.4513 19.0345C30.4118 19.3962 30.332 19.7604 30.2176 20.106C29.9147 21.0204 29.0607 21.6303 28.1109 21.6472C26.8041 21.6698 25.743 20.5822 25.8002 19.2754C25.8067 19.1344 25.8164 18.9902 25.8518 18.8548C25.9428 18.5084 25.9356 18.1531 25.9638 17.801C25.9872 17.5126 25.992 17.2226 26.0137 16.9334C26.0645 16.2526 26.3271 15.6693 26.8702 15.2455C27.6049 14.6719 28.421 14.5615 29.2645 14.9611C30.1073 15.3599 30.5294 16.0616 30.5713 16.9922C30.5745 17.0631 30.5713 17.134 30.5713 17.2049C30.5729 17.2049 30.5737 17.2049 30.5753 17.2049H30.577Z" fill="white"/>
</svg>
