<svg width="47" height="46" viewBox="0 0 47 46" fill="none" xmlns="http://www.w3.org/2000/svg">
<path d="M23.7887 0C26.9075 0 29.5771 0.439898 32.1491 1.39327C37.6277 3.42392 41.7448 7.00739 44.3958 12.2343C45.3654 14.1457 45.9935 16.1732 46.3467 18.2867C46.5875 19.7265 46.672 21.1778 46.6123 22.6346C46.4241 27.2411 44.9464 31.407 42.2606 35.1415C39.7869 38.5809 36.6031 41.1738 32.7687 42.9714C30.8426 43.8744 28.8305 44.5064 26.7387 44.8835C25.6901 45.0725 24.6329 45.1879 23.568 45.2367C22.5581 45.2832 21.5498 45.2684 20.5437 45.1863C18.2978 45.0036 16.1207 44.5133 14.0181 43.6994C11.7132 42.8072 9.60668 41.5765 7.7131 39.9866C5.22784 37.9002 3.30096 35.3831 1.94796 32.4332C1.2068 30.8176 0.674737 29.1347 0.35798 27.3852C0.169009 26.3428 0.0590353 25.2926 0.0164395 24.2331C-0.0284796 23.1101 0.0195375 21.9926 0.149648 20.8789C0.413742 18.6205 0.998465 16.4458 1.9317 14.3726C4.32558 9.05818 8.17236 5.1386 13.3667 2.52864C15.3966 1.50866 17.538 0.813191 19.7708 0.4004C21.2222 0.131659 22.6874 -0.00851898 23.7887 0.000774634V0ZM23.7392 4.39046C23.252 4.38736 22.3459 4.45474 21.4429 4.57943C19.8111 4.80403 18.2319 5.22534 16.7047 5.84104C14.6268 6.67824 12.7332 7.8229 11.041 9.29207C8.47363 11.5202 6.58315 14.2185 5.43927 17.4263C4.67487 19.57 4.31784 21.7804 4.40148 24.0589C4.42936 24.8209 4.50371 25.5768 4.62917 26.328C4.90721 28.0001 5.41758 29.5979 6.18275 31.1096C8.11815 34.937 11.0944 37.6632 15.0148 39.3647C17.2073 40.3165 19.5121 40.792 21.899 40.8656C23.2396 40.9066 24.5717 40.8091 25.8922 40.5744C27.5124 40.2871 29.076 39.8123 30.5816 39.1439C32.3412 38.3625 33.9614 37.3573 35.4267 36.1111C38.056 33.876 39.9906 31.1499 41.1694 27.8987C41.7789 26.2181 42.1281 24.4825 42.2195 22.6981C42.2823 21.4714 42.2149 20.2492 42.0159 19.0349C41.7239 17.2567 41.1825 15.5606 40.3492 13.9621C38.3991 10.2199 35.4484 7.55261 31.5876 5.88751C29.2224 4.86753 26.7379 4.39201 23.7384 4.39046H23.7392Z" fill="white"/>
<path d="M22.5821 29.9641C20.9728 29.947 19.3634 29.9401 17.7541 29.9099C16.2005 29.8804 14.6477 29.8262 13.0949 29.7844C12.3832 29.765 11.6714 29.7511 10.9597 29.7341C10.6499 29.7263 10.3417 29.7054 10.0404 29.6264C9.03437 29.3639 8.34664 28.4825 8.35671 27.4664C8.36832 26.2985 9.31008 25.3374 10.4772 25.3111C10.6809 25.3064 10.8846 25.3366 11.0883 25.3428C11.6575 25.3606 12.2267 25.3754 12.796 25.3908C13.6254 25.4133 14.4541 25.4389 15.2836 25.4574C16.6637 25.4877 18.0438 25.5264 19.4239 25.5372C21.7078 25.555 23.9924 25.5651 26.2764 25.5566C27.4954 25.5519 28.7144 25.5016 29.9334 25.4698C30.5894 25.4528 31.2453 25.4381 31.9005 25.411C32.7354 25.3761 33.5695 25.3266 34.4036 25.2902C34.7614 25.2747 35.1177 25.229 35.4786 25.2731C36.5288 25.4001 37.3605 26.2985 37.3977 27.3603C37.4357 28.4337 36.6891 29.3856 35.6451 29.5854C35.4515 29.6225 35.2524 29.6411 35.0557 29.6504C33.7949 29.7093 32.5333 29.7712 31.2717 29.8154C29.7622 29.868 28.2528 29.9122 26.7426 29.9439C25.8388 29.9633 24.935 29.9517 24.0312 29.9532C23.5487 29.954 23.0654 29.9532 22.5829 29.9532C22.5829 29.9563 22.5829 29.9602 22.5829 29.9633L22.5821 29.9641Z" fill="white"/>
<path d="M13.5402 15.1712C13.4906 15.0744 13.4597 15.0139 13.4295 14.9535C13.208 14.5175 12.9787 14.0861 12.7681 13.6455C12.126 12.3025 12.9586 10.7404 14.4293 10.5189C15.3548 10.3795 16.2586 10.8372 16.6938 11.6659C16.7279 11.731 16.7612 11.7976 16.8015 11.8766C16.8495 11.8355 16.8929 11.803 16.9324 11.7658C17.143 11.5652 17.3545 11.3646 17.5628 11.1625C17.7812 10.9511 18.0097 10.752 18.273 10.5972C19.6004 9.81881 21.2648 10.5515 21.5536 12.057C21.7108 12.8756 21.4413 13.5649 20.8334 14.1334C20.2324 14.6956 19.6415 15.2687 19.0467 15.838C19.0382 15.8465 19.032 15.8581 19.0141 15.8844C19.0436 15.9348 19.0769 15.9913 19.1117 16.0486C19.3278 16.4026 19.5485 16.7534 19.7584 17.1112C20.1139 17.7153 20.2053 18.3573 19.9613 19.0203C19.6701 19.8102 19.0947 20.2989 18.266 20.4368C17.4296 20.5762 16.7302 20.2881 16.1873 19.6367C16.0851 19.5136 16.0053 19.3719 15.9155 19.2387C15.8822 19.1883 15.8497 19.1372 15.8001 19.0613C15.6615 19.2077 15.5414 19.3401 15.416 19.4671C15.1511 19.7359 14.8909 20.0108 14.6144 20.2672C14.1582 20.6916 13.613 20.8891 12.9872 20.8643C11.9781 20.824 11.0921 20.0279 10.9473 19.0272C10.8489 18.3488 11.0302 17.7532 11.467 17.232C11.5343 17.1515 11.6079 17.0756 11.6823 17.0012C12.2414 16.4397 12.8014 15.879 13.3621 15.3191C13.4147 15.2672 13.4759 15.2238 13.5402 15.1712Z" fill="white"/>
<path d="M31.2461 10.9517C31.4444 10.7659 31.6217 10.5932 31.806 10.429C32.1646 10.1091 32.5728 9.89227 33.0529 9.81328C34.2177 9.62198 35.3593 10.4321 35.5436 11.5961C35.6729 12.4132 35.4089 13.0908 34.8009 13.6477C34.4826 13.9396 34.1806 14.2494 33.8684 14.5546C34.0907 14.8698 34.3029 15.1664 34.5112 15.4653C34.6282 15.6326 34.7498 15.7984 34.8497 15.9757C35.2284 16.6495 35.2904 17.3535 34.9651 18.0598C34.6104 18.8304 33.9924 19.2726 33.1443 19.3354C32.2653 19.4004 31.5853 19.0318 31.1067 18.2929C30.9936 18.1179 30.8813 17.9421 30.7504 17.7376C30.6157 17.8956 30.4972 18.0265 30.3872 18.1644C30.0557 18.5818 29.636 18.8567 29.114 18.9745C27.7168 19.2897 26.3925 18.1721 26.4622 16.7386C26.4885 16.191 26.6883 15.7132 27.0446 15.305C27.3497 14.9557 27.6735 14.6219 27.9887 14.282C28.0297 14.237 28.0715 14.1929 28.1196 14.1426C27.8833 13.8095 27.6541 13.4796 27.4194 13.1543C27.1879 12.8337 27.0198 12.4875 26.9462 12.0964C26.7038 10.8193 27.6642 9.58791 28.9614 9.52363C29.7731 9.48335 30.4151 9.80553 30.8945 10.4576C31.0114 10.6164 31.1237 10.779 31.2476 10.9517H31.2461Z" fill="white"/>
</svg>
