<svg width="220" height="220" viewBox="0 0 220 220" fill="none" xmlns="http://www.w3.org/2000/svg">
<g clip-path="url(#clip0_21_168)">
<path d="M190.6 45.58L187.45 48.2L184.92 45.16L188.06 42.54L190.59 45.58H190.6Z" fill="white"/>
<path d="M201.9 49.51L202.89 51.16L197.09 54.65C198.54 54.98 203.29 56.17 206.32 56.87L207.56 58.93L199.48 56.85L195.79 66.34L194.58 64.32L197.7 56.33L195.43 55.65L190.98 58.33L189.99 56.68L201.9 49.52V49.51Z" fill="white"/>
<path d="M207.35 75.52C203.83 77.02 199.86 76.37 198.13 72.34C196.51 68.56 198.52 65.21 202.19 63.65C205.85 62.09 209.69 63 211.34 66.87C212.88 70.48 211.15 73.89 207.34 75.52H207.35ZM203.04 65.48C200.3 66.65 198.52 69.05 199.67 71.76C200.92 74.69 203.83 74.81 206.52 73.66C209.25 72.49 210.98 70.2 209.79 67.43C208.57 64.58 205.74 64.32 203.03 65.47L203.04 65.48Z" fill="white"/>
<path d="M207.91 80.85L202.04 82.43L201.54 80.58L214.97 76.97L216.39 82.27C217.14 85.04 216.03 86.93 213.93 87.49C212.18 87.96 210.86 87.24 210.16 86.08C210.16 87.22 209.6 88.39 207.27 89.02L206.69 89.18C205.77 89.43 204.6 89.7 204.09 90.07L203.6 88.25C204.11 87.85 205.16 87.58 206.43 87.24L206.71 87.17C208.59 86.67 209.26 85.92 208.62 83.53L207.9 80.85H207.91ZM209.48 80.43L210.25 83.31C210.79 85.32 211.78 86 213.26 85.6C214.66 85.22 215.21 84.1 214.73 82.31L213.91 79.24L209.48 80.43Z" fill="white"/>
<path d="M217.09 93.96L216.47 89.53L218.11 89.3L219.61 100.09L217.97 100.32L217.35 95.89L205.22 97.58L204.95 95.65L217.08 93.96H217.09Z" fill="white"/>
<path d="M205.92 103.55L219.83 103.33L219.87 105.88C216.66 107.91 209.92 112.26 208.42 113.05V113.08C210.18 112.92 212.39 112.89 214.66 112.86L219.98 112.77L220.01 114.6L206.1 114.82L206.06 112.42C209.02 110.56 216.31 106 217.86 105.12V105.09C216.31 105.21 213.91 105.26 211.4 105.3L205.94 105.39L205.91 103.56L205.92 103.55Z" fill="white"/>
<path d="M219.33 121.48L205.49 120.16L205.67 118.23L219.51 119.55L219.33 121.48Z" fill="white"/>
<path d="M217.89 131.59L216.61 136.83C215.9 139.72 214.06 140.67 212.2 140.21C210.63 139.83 209.83 138.69 209.73 137.57C209.2 138.44 207.9 139.62 205.93 139.14C203.4 138.52 202.44 136.24 203.07 133.65L204.38 128.28L217.88 131.58L217.89 131.59ZM205.48 130.52L204.68 133.8C204.27 135.49 204.77 136.82 206.42 137.22C207.86 137.57 209.04 136.88 209.58 134.66L210.3 131.7L205.47 130.52H205.48ZM211.1 135.13C210.63 137.04 211.21 137.97 212.5 138.29C213.68 138.58 214.71 137.93 215.09 136.38L215.9 133.07L211.85 132.08L211.1 135.13Z" fill="white"/>
<path d="M203.27 154.32C199.72 152.89 197.36 149.62 199 145.55C200.53 141.73 204.32 140.79 208.02 142.27C211.72 143.75 213.79 147.11 212.22 151.03C210.76 154.68 207.12 155.87 203.27 154.33V154.32ZM207.32 144.17C204.55 143.06 201.59 143.5 200.49 146.23C199.31 149.18 201.28 151.33 204 152.42C206.75 153.52 209.6 153.13 210.72 150.33C211.87 147.45 210.06 145.26 207.32 144.17Z" fill="white"/>
<path d="M205.01 161.96L207.19 158.06L208.63 158.87L203.31 168.38L201.87 167.57L204.05 163.67L193.36 157.69L194.31 155.99L205 161.97L205.01 161.96Z" fill="white"/>
<path d="M197.89 173.23L200.54 169.63L201.87 170.61L195.42 179.39L194.09 178.41L196.74 174.81L186.87 167.56L188.03 165.99L197.9 173.24L197.89 173.23Z" fill="white"/>
<path d="M192.21 182.97L181.73 173.83L183.01 172.37L193.49 181.51L192.21 182.97Z" fill="white"/>
<path d="M179.53 176.44L189 186.61L187.14 188.35C183.49 187.32 175.74 185.23 174.15 184.65L174.13 184.67C175.43 185.86 176.92 187.49 178.47 189.15L182.09 193.04L180.75 194.28L171.28 184.11L173.03 182.48C176.39 183.44 184.66 185.79 186.35 186.36L186.37 186.34C185.24 185.27 183.6 183.52 181.89 181.68L178.17 177.69L179.51 176.44H179.53Z" fill="white"/>
<path d="M175.34 198.4L166.97 187.29L168.52 186.12L176.89 197.23L175.34 198.4Z" fill="white"/>
<path d="M166.87 204.22L162.45 206.6C159 208.46 155.41 207.37 153.44 203.72C151.49 200.1 152.34 196.25 155.91 194.33L160.26 191.98L166.86 204.22H166.87ZM159.34 194.34L156.82 195.7C153.98 197.23 153.74 199.99 155.21 202.73C156.49 205.11 158.91 206.65 161.85 205.07L164.38 203.71L159.34 194.35V194.34Z" fill="white"/>
<path d="M138.83 209.15C137.53 205.55 138.41 201.62 142.54 200.13C146.41 198.74 149.63 200.94 150.98 204.69C152.33 208.44 151.19 212.21 147.23 213.64C143.54 214.97 140.23 213.05 138.82 209.15H138.83ZM149.1 205.44C148.09 202.64 145.79 200.71 143.02 201.71C140.03 202.79 139.73 205.68 140.73 208.44C141.73 211.23 143.92 213.09 146.75 212.07C149.66 211.02 150.09 208.21 149.1 205.44Z" fill="white"/>
<path d="M126.84 211.18L133.58 209.75L132.58 205.05L125.17 206.62L125.07 204.95L134.09 203.03L136.98 216.63L128.06 218.52L127.72 216.9L134.78 215.4L133.92 211.35L127.18 212.78L126.84 211.16V211.18Z" fill="white"/>
<path d="M121.98 209.23C121.47 207.62 120.27 206.85 118.3 207.02C116.19 207.2 115.43 208.26 115.54 209.54C115.66 210.91 116.4 211.6 119.2 212.03C122.58 212.55 123.79 213.59 123.96 215.53C124.14 217.62 122.74 219.42 119.63 219.69C116.3 219.98 114.77 218.18 114.42 216.36L116.39 216.19C116.73 217.37 117.56 218.31 119.57 218.14C121.22 218 122.08 217.18 121.97 215.89C121.86 214.62 121.05 214.18 118.59 213.81C114.55 213.19 113.71 211.72 113.55 209.92C113.36 207.66 114.88 205.77 118.29 205.48C121.78 205.18 123.47 206.94 123.94 209.07L121.97 209.24L121.98 209.23Z" fill="white"/>
<path d="M104.66 219.91L99.67 219.42C95.77 219.04 93.39 216.13 93.79 212.01C94.19 207.92 97.04 205.19 101.08 205.59L106.01 206.07L104.66 219.91ZM103.92 207.51L101.07 207.23C97.86 206.92 96.12 209.07 95.82 212.17C95.56 214.86 96.7 217.49 100.03 217.81L102.89 218.09L103.92 207.51Z" fill="white"/>
<path d="M82.07 208.7L88.78 210.27L89.88 205.59L82.51 203.86L83.13 202.31L92.11 204.41L88.94 217.95L80.06 215.87L80.44 214.26L87.47 215.91L88.41 211.88L81.7 210.31L82.08 208.7H82.07Z" fill="white"/>
<path d="M78.52 204.87C78.74 203.2 77.99 201.98 76.13 201.3C74.14 200.57 73.01 201.2 72.56 202.41C72.08 203.7 72.46 204.65 74.82 206.22C77.66 208.12 78.31 209.58 77.64 211.41C76.91 213.38 74.88 214.42 71.95 213.34C68.81 212.18 68.19 209.91 68.65 208.11L70.5 208.79C70.31 210 70.66 211.21 72.55 211.91C74.1 212.48 75.23 212.11 75.68 210.89C76.12 209.69 75.58 208.95 73.51 207.56C70.12 205.28 69.98 203.59 70.6 201.9C71.39 199.77 73.57 198.71 76.79 199.89C80.07 201.1 80.86 203.41 80.38 205.55L78.53 204.87H78.52Z" fill="white"/>
<path d="M62.08 208.93L68.04 196.37L69.79 197.2L63.83 209.76L62.08 208.93Z" fill="white"/>
<path d="M55.35 189.14L56.62 189.91C56.56 190.2 56.29 190.75 55.82 191.58C56.86 191.05 58.44 190.79 60.55 192.07C63.98 194.15 64.23 197.86 62.19 201.24C60.03 204.8 56.45 206.29 52.84 204.11C50.05 202.42 49.23 199.85 50.17 197.53L51.83 198.53C51.44 200.05 51.78 201.59 53.7 202.75C56.43 204.41 58.82 202.86 60.4 200.26C61.86 197.84 62.16 194.93 59.5 193.32C56.87 191.73 55.17 193.09 54 195.02L53.93 195.14L57.22 197.13L56.36 198.54L51.45 195.57L55.35 189.13V189.14Z" fill="white"/>
<path d="M53.02 187.46L44.13 198.15L42.17 196.52C42.72 192.77 43.81 184.82 44.19 183.16L44.17 183.14C43.15 184.58 41.73 186.27 40.28 188.02L36.88 192.11L35.48 190.94L44.37 180.25L46.21 181.78C45.69 185.24 44.4 193.74 44.06 195.49L44.08 195.51C45 194.25 46.53 192.4 48.13 190.48L51.62 186.28L53.03 187.45L53.02 187.46Z" fill="white"/>
<path d="M30.77 176.06L33.86 173.38L36.46 176.37L33.37 179.05L30.77 176.06Z" fill="white"/>
<path d="M19.4 172.37L18.38 170.74L24.11 167.13C22.66 166.83 17.88 165.74 14.84 165.1L13.56 163.07L21.68 164.98L25.17 155.42L26.42 157.41L23.47 165.46L25.75 166.09L30.15 163.32L31.17 164.95L19.41 172.35L19.4 172.37Z" fill="white"/>
<path d="M13.42 146.5C16.91 144.92 20.89 145.49 22.7 149.49C24.4 153.24 22.45 156.62 18.82 158.27C15.19 159.91 11.34 159.08 9.59999 155.24C7.97999 151.66 9.63999 148.21 13.41 146.51L13.42 146.5ZM17.93 156.44C20.65 155.21 22.38 152.77 21.17 150.09C19.86 147.19 16.95 147.13 14.28 148.34C11.58 149.56 9.88999 151.89 11.14 154.63C12.42 157.45 15.25 157.66 17.94 156.44H17.93Z" fill="white"/>
<path d="M12.75 141.17L18.58 139.47L19.12 141.31L5.77 145.19L4.24 139.92C3.44 137.16 4.51 135.26 6.59 134.65C8.33 134.14 9.66 134.83 10.38 135.98C10.36 134.84 10.89 133.66 13.21 132.98L13.79 132.81C14.71 132.54 15.87 132.25 16.37 131.86L16.89 133.66C16.38 134.07 15.34 134.36 14.08 134.73L13.8 134.81C11.94 135.35 11.27 136.11 11.96 138.49L12.73 141.15L12.75 141.17ZM11.19 141.62L10.36 138.76C9.78 136.76 8.77 136.11 7.3 136.53C5.91 136.93 5.38 138.07 5.9 139.85L6.79 142.9L11.19 141.62Z" fill="white"/>
<path d="M3.29 128.24L4 132.65L2.37 132.91L0.639999 122.15L2.27 121.89L2.98 126.31L15.07 124.37L15.38 126.3L3.28 128.24H3.29Z" fill="white"/>
<path d="M14.21 118.41L0.31 118.8L0.24 116.25C3.42 114.19 10.11 109.75 11.6 108.94V108.91C9.85 109.1 7.64 109.15 5.37 109.21L0.05 109.36L0 107.54L13.9 107.15L13.97 109.54C11.03 111.43 3.8 116.08 2.26 116.98V117.01C3.81 116.87 6.21 116.79 8.71 116.72L14.16 116.57L14.21 118.4V118.41Z" fill="white"/>
<path d="M0.490006 100.79L14.35 101.82L14.21 103.75L0.350006 102.72L0.490006 100.78V100.79Z" fill="white"/>
<path d="M1.7 90.66L2.87 85.39C3.51 82.49 5.34 81.5 7.21 81.91C8.78 82.26 9.61 83.39 9.74 84.5C10.25 83.62 11.53 82.41 13.51 82.85C16.05 83.41 17.06 85.68 16.49 88.28L15.29 93.68L1.71 90.67L1.7 90.66ZM8.42 86.98C8.85 85.06 8.25 84.14 6.96 83.85C5.78 83.59 4.76 84.26 4.41 85.81L3.67 89.14L7.74 90.04L8.42 86.97V86.98ZM14.14 91.47L14.87 88.17C15.25 86.47 14.71 85.15 13.06 84.79C11.62 84.47 10.45 85.18 9.95 87.41L9.29 90.39L14.14 91.47Z" fill="white"/>
<path d="M15.85 67.62C19.43 68.97 21.86 72.19 20.31 76.3C18.86 80.15 15.09 81.18 11.36 79.77C7.63 78.37 5.49 75.05 6.98 71.1C8.36 67.42 11.98 66.15 15.86 67.61L15.85 67.62ZM12.02 77.85C14.81 78.9 17.76 78.4 18.8 75.64C19.92 72.66 17.91 70.56 15.16 69.53C12.38 68.48 9.55 68.94 8.49 71.76C7.4 74.66 9.26 76.81 12.02 77.85Z" fill="white"/>
<path d="M13.96 60.01L11.86 63.95L10.4 63.17L15.52 53.55L16.98 54.33L14.88 58.28L25.69 64.04L24.77 65.76L13.96 60V60.01Z" fill="white"/>
<path d="M20.85 48.59L18.28 52.25L16.93 51.3L23.2 42.39L24.55 43.34L21.98 47L32 54.05L30.88 55.65L20.86 48.6L20.85 48.59Z" fill="white"/>
<path d="M26.33 38.74L36.99 47.66L35.74 49.15L25.08 40.23L26.33 38.74Z" fill="white"/>
<path d="M39.14 45L29.45 35.02L31.28 33.25C34.95 34.2 42.74 36.13 44.35 36.68L44.37 36.66C43.05 35.49 41.52 33.9 39.93 32.27L36.22 28.45L37.53 27.18L47.22 37.16L45.5 38.83C42.12 37.94 33.8 35.75 32.1 35.23L32.08 35.25C33.23 36.3 34.91 38.01 36.65 39.82L40.45 43.74L39.13 45.02L39.14 45Z" fill="white"/>
<path d="M42.88 22.97L51.47 33.9L49.95 35.1L41.36 24.17L42.88 22.97Z" fill="white"/>
<path d="M51.21 16.98L55.57 14.51C58.98 12.58 62.59 13.59 64.63 17.2C66.65 20.77 65.89 24.64 62.36 26.64L58.06 29.08L51.21 16.99V16.98ZM58.94 26.69L61.43 25.28C64.23 23.69 64.42 20.93 62.89 18.22C61.56 15.87 59.11 14.38 56.2 16.03L53.7 17.44L58.94 26.69Z" fill="white"/>
<path d="M79.16 11.45C80.53 15.02 79.74 18.97 75.63 20.55C71.79 22.03 68.52 19.89 67.09 16.17C65.66 12.45 66.72 8.65 70.65 7.14C74.32 5.73 77.67 7.59 79.15 11.46L79.16 11.45ZM68.97 15.38C70.04 18.16 72.38 20.04 75.13 18.98C78.1 17.84 78.33 14.94 77.28 12.2C76.22 9.43 73.99 7.61 71.18 8.69C68.29 9.8 67.92 12.62 68.97 15.37V15.38Z" fill="white"/>
<path d="M91.11 9.18L84.4 10.75L85.49 15.43L92.86 13.71L92.99 15.38L84.01 17.48L80.85 3.94L89.73 1.87L90.11 3.48L83.08 5.12L84.02 9.14999L90.73 7.58L91.11 9.18999V9.18Z" fill="white"/>
<path d="M96.01 11.03C96.55 12.63 97.77 13.38 99.74 13.17C101.85 12.94 102.58 11.88 102.45 10.59C102.3 9.23003 101.54 8.55003 98.74 8.18003C95.36 7.73003 94.12 6.72003 93.91 4.78003C93.69 2.70003 95.05 0.860025 98.15 0.530025C101.47 0.180025 103.04 1.94003 103.42 3.75003L101.46 3.96003C101.09 2.79003 100.24 1.86003 98.24 2.08003C96.6 2.26003 95.75 3.09003 95.89 4.38003C96.03 5.65003 96.84 6.07002 99.31 6.39003C103.36 6.93003 104.24 8.38002 104.43 10.17C104.67 12.42 103.18 14.35 99.78 14.71C96.3 15.08 94.57 13.36 94.05 11.24L96.01 11.03Z" fill="white"/>
<path d="M113.06 0L118.06 0.38C121.97 0.68 124.4 3.53 124.09 7.66C123.78 11.76 120.99 14.54 116.94 14.24L112.01 13.87L113.06 0.01V0ZM114.07 12.38L116.92 12.6C120.13 12.84 121.83 10.65 122.06 7.55C122.26 4.85 121.06 2.25 117.73 2L114.87 1.78L114.07 12.38Z" fill="white"/>
<path d="M135.88 10.73L129.14 9.3L128.14 14L135.55 15.57L134.97 17.14L125.95 15.23L128.84 1.63L137.76 3.52L137.42 5.14L130.36 3.64001L129.5 7.69L136.24 9.12L135.9 10.74L135.88 10.73Z" fill="white"/>
<path d="M139.54 14.49C139.35 16.17 140.14 17.36 142.01 18.01C144.02 18.7 145.14 18.05 145.56 16.83C146.01 15.53 145.61 14.59 143.22 13.07C140.35 11.23 139.66 9.78 140.3 7.94C140.98 5.96 143 4.88 145.94 5.9C149.1 6.99 149.77 9.25 149.35 11.06L147.49 10.42C147.66 9.2 147.28 8 145.38 7.35C143.82 6.81 142.69 7.21 142.27 8.43C141.85 9.64 142.42 10.37 144.51 11.71C147.95 13.92 148.12 15.61 147.54 17.31C146.8 19.45 144.64 20.56 141.4 19.45C138.09 18.31 137.26 16.01 137.69 13.87L139.55 14.51L139.54 14.49Z" fill="white"/>
<path d="M155.87 10.08L150.17 22.77L148.4 21.98L154.1 9.28998L155.87 10.08Z" fill="white"/>
<path d="M163.03 29.74L161.75 29C161.81 28.71 162.06 28.15 162.52 27.31C161.49 27.86 159.92 28.15 157.78 26.92C154.31 24.91 153.98 21.21 155.96 17.78C158.04 14.17 161.6 12.61 165.25 14.72C168.07 16.35 168.95 18.91 168.05 21.25L166.37 20.28C166.73 18.75 166.36 17.22 164.41 16.09C161.64 14.49 159.28 16.09 157.76 18.72C156.35 21.17 156.11 24.09 158.81 25.64C161.47 27.18 163.14 25.78 164.27 23.82L164.34 23.7L161.01 21.78L161.84 20.35L166.81 23.22L163.04 29.74H163.03Z" fill="white"/>
<path d="M165.39 31.36L174.06 20.49L176.05 22.08C175.57 25.84 174.65 33.81 174.31 35.47L174.33 35.49C175.32 34.03 176.71 32.31 178.12 30.53L181.44 26.37L182.87 27.51L174.2 38.38L172.33 36.89C172.78 33.42 173.89 24.9 174.2 23.14L174.18 23.12C173.29 24.4 171.8 26.28 170.23 28.24L166.83 32.51L165.4 31.37L165.39 31.36Z" fill="white"/>
</g>
<defs>
<clipPath id="clip0_21_168">
<rect width="220.01" height="219.91" fill="white"/>
</clipPath>
</defs>
</svg>
