<svg width="82" height="97" viewBox="0 0 82 97" fill="none" xmlns="http://www.w3.org/2000/svg">
<path d="M82 41C82 63.6437 59.5 97 41 97C22.5 97 0 63.6437 0 41C0 18.3563 18.3563 0 41 0C63.6437 0 82 18.3563 82 41Z" fill="#16905F"/>
<ellipse cx="58" cy="60" rx="8.4853" ry="12.7279" transform="rotate(45 58 60)" fill="#302F2D"/>
<ellipse cx="62.661" cy="58.6679" rx="2.36025" ry="3.54037" transform="rotate(45 62.661 58.6679)" fill="#D9D9D9"/>
<ellipse cx="8.4853" cy="12.7279" rx="8.4853" ry="12.7279" transform="matrix(-0.707107 0.707107 0.707107 0.707107 20 45)" fill="#302F2D"/>
<ellipse cx="2.36025" cy="3.54037" rx="2.36025" ry="3.54037" transform="matrix(-0.707107 0.707107 0.707107 0.707107 17.5046 54.4955)" fill="#D9D9D9"/>
<path d="M45.8588 78.1849C45.3267 80.3744 43.3532 82 41 82C38.6468 82 36.6733 80.3744 36.1412 78.1849" stroke="black" stroke-width="2" stroke-linecap="round"/>
</svg>
