<svg width="34" height="34" viewBox="0 0 34 34" fill="none" xmlns="http://www.w3.org/2000/svg">
<path d="M17.1107 33.0148C18.3558 28.0563 19.7566 24.6571 22.2103 22.201C24.6643 19.7446 28.0621 18.3407 33.0253 17.0964C33.0477 17.0901 33.0674 17.0768 33.0814 17.0587C33.0958 17.04 33.1036 17.0172 33.1036 16.9937C33.1036 16.9702 33.0958 16.9474 33.0814 16.9287C33.0674 16.9106 33.0477 16.8973 33.0253 16.891C28.0621 15.6467 24.6643 14.2428 22.2103 11.7864C19.7566 9.33025 18.3558 5.93114 17.1107 0.972603M17.1107 33.0148C17.1109 33.0142 17.111 33.0136 17.1112 33.0129L17.9768 33.2385L17.1092 33.0207C17.1097 33.0187 17.1102 33.0168 17.1107 33.0148ZM17.1107 33.0148C17.1045 33.0367 17.0914 33.0563 17.0731 33.0704C17.0544 33.0849 17.0311 33.0929 17.0071 33.0929C16.9831 33.0929 16.9599 33.0849 16.9411 33.0704C16.9228 33.0563 16.9097 33.0367 16.9036 33.0148M16.9036 33.0148C16.9034 33.0142 16.9032 33.0136 16.9031 33.0129L16.0375 33.2385L16.905 33.0207C16.9046 33.0187 16.9041 33.0168 16.9036 33.0148ZM16.9036 33.0148C15.6583 28.0555 14.2532 24.6565 11.7953 22.2004C9.33738 19.7445 5.93585 18.3407 0.972791 17.0964C0.950419 17.0901 0.930762 17.0769 0.916697 17.0587C0.902269 17.04 0.894479 17.0172 0.894479 16.9937C0.894479 16.9702 0.902269 16.9474 0.916697 16.9287C0.930763 16.9105 0.950419 16.8973 0.972786 16.891C5.93584 15.6467 9.33738 14.2429 11.7953 11.787C14.2532 9.33093 15.6583 5.93188 16.9036 0.972608M16.9036 0.972608C16.9034 0.973224 16.9032 0.973842 16.9031 0.974462L16.0375 0.748936L16.905 0.96671C16.9046 0.968677 16.9041 0.970642 16.9036 0.972608ZM16.9036 0.972608C16.9097 0.950662 16.9228 0.931113 16.9411 0.916973C16.96 0.902428 16.9832 0.894479 17.0071 0.894479C17.0311 0.894479 17.0543 0.902427 17.0731 0.916976C17.0914 0.931114 17.1046 0.95066 17.1107 0.972603M17.1107 0.972603C17.1102 0.970639 17.1097 0.968675 17.1092 0.96671L17.9768 0.748936L17.1112 0.974462C17.111 0.973841 17.1109 0.973221 17.1107 0.972603Z" fill="#FED33D" stroke="#26103D" stroke-width="1.78896"/>
</svg>
