<svg width="94" height="126" viewBox="0 0 94 126" fill="none" xmlns="http://www.w3.org/2000/svg">
<path d="M26.7756 1.37716V1.46405C26.7756 8.66699 25.0407 8.2369 22.1563 13.6543C19.4412 14.694 19.0074 16.132 20.8551 17.9683C21.4476 19.7188 22.6401 21.2025 24.2209 22.1562C26.7105 23.4595 27.5621 25.5535 26.7756 28.4382V32.839C27.6908 35.615 30.6055 38.7039 32.2016 41.1541C31.4989 43.3263 28.2286 46.0632 25.9905 48.0703C21.7183 52.0801 22.3602 53.2314 20.5082 56.4983C20.3872 56.7099 20.2121 56.8854 20.001 57.0071C19.7898 57.1283 19.5502 57.1913 19.3067 57.1891H14.4966C14.2533 57.1904 14.0141 57.127 13.803 57.0058C13.592 56.8846 13.4168 56.7095 13.2952 56.4983C11.4431 53.2314 8.95786 52.0801 9.50436 48.0703C9.68219 46.0632 11.7511 43.348 12.4581 41.1541C10.8489 38.6952 7.96895 35.6237 7.02775 32.8173V28.3947C7.80556 25.4985 6.9381 23.4001 4.42535 22.0997C2.82269 21.1745 1.62362 19.6821 1.06392 17.9161C-0.723055 16.0538 -0.25896 14.6057 2.4562 13.5718C5.36655 8.18911 7.02775 8.5801 7.02775 1.37716C7.0376 1.01503 7.18563 0.670447 7.44136 0.414287C7.69713 0.158128 8.04112 0.00986677 8.40268 0H11.1482C11.5052 0.0234687 11.8414 0.176097 12.0944 0.429455C12.3473 0.682815 12.4997 1.01963 12.5231 1.37716C12.5231 8.5801 10.8706 8.18911 7.96028 13.5935C5.24511 14.6101 4.78102 16.0582 6.56799 17.9378C7.12768 19.7038 8.32674 21.1962 9.92942 22.1215C12.4335 23.4219 13.301 25.5202 12.5318 28.4164V32.8173C13.4427 35.6237 16.3443 38.6952 17.9448 41.1541C17.771 41.7075 17.5609 42.2488 17.3159 42.7745C16.7173 46.4368 15.2166 48.6394 16.8822 51.5979C18.6171 48.0442 22.7592 45.2508 25.6305 42.7745C26.1002 42.3216 26.4607 41.7674 26.6845 41.1541C25.1014 38.6952 22.1997 35.6237 21.2802 32.8173V28.3947C22.058 25.4985 21.1905 23.4001 18.6778 22.0997C17.085 21.1695 15.8957 19.6778 15.3424 17.9161C13.5554 16.0538 14.0195 14.6057 16.7347 13.5718C19.6277 8.18911 21.2802 8.5801 21.2802 1.37716C21.29 1.01503 21.4381 0.670447 21.6938 0.414287C21.9496 0.158128 22.2936 0.00986677 22.6551 0H25.4007C25.7622 0.00986677 26.1062 0.158128 26.362 0.414287C26.6177 0.670447 26.7657 1.01503 26.7756 1.37716ZM37.0767 5.5043C38.2044 11.6298 32.3924 11.0911 30.8917 15.6962C29.7597 19.1716 34.7519 22.5385 37.0767 25.8837H44.5456C44.7269 25.8813 44.9065 25.9154 45.0743 25.9838C45.2422 26.0521 45.3949 26.1535 45.5228 26.2818C45.6512 26.4102 45.7523 26.5629 45.8208 26.7311C45.8889 26.8992 45.9227 27.0793 45.9205 27.2608V30.0108C45.9119 30.3733 45.764 30.7185 45.5081 30.9749C45.2522 31.2312 44.9073 31.3791 44.5456 31.388H37.0767C36.4869 36.6403 41.0974 36.0147 41.9476 40.0332C42.6329 43.2611 38.3563 48.0833 37.0767 51.6848H44.5456C44.9073 51.6935 45.2522 51.8416 45.5081 52.0979C45.764 52.3543 45.9119 52.6996 45.9205 53.062V55.8119C45.9227 55.9935 45.8889 56.1734 45.8208 56.3415C45.7523 56.5096 45.6512 56.6626 45.5228 56.7912C45.3949 56.9193 45.2422 57.0205 45.0743 57.0892C44.9065 57.1574 44.7269 57.1913 44.5456 57.1891H34.3312C33.9688 57.1939 33.6091 57.1257 33.2734 56.9888C32.9377 56.852 32.6327 56.6495 32.3764 56.3928C32.1201 56.136 31.9177 55.8306 31.7812 55.4944C31.6446 55.1581 31.5767 54.798 31.5814 54.4348C30.8874 50.9971 31.7418 48.1007 34.1447 45.7461C36.5707 43.6664 37.1562 41.1063 35.9013 38.0652L31.9977 34.8504C31.6499 32.7799 31.5047 30.6803 31.564 28.5815C31.7303 27.8402 31.7228 27.0704 31.5422 26.3325C31.3616 25.5946 31.0128 24.9086 30.523 24.3284C29.4278 21.4725 27.2984 19.1349 24.5592 17.7814C25.4556 16.2319 26.352 14.681 27.2484 13.1286C31.3197 10.6581 32.7654 7.1986 31.5857 2.74998C31.5914 2.02239 31.8824 1.32622 32.3961 0.811725C32.9097 0.297233 33.6048 0.00568007 34.3312 0H44.5456C44.9073 0.00881774 45.2522 0.156742 45.5081 0.413123C45.764 0.669504 45.9119 1.01469 45.9205 1.37716V4.12714C45.9227 4.30864 45.8889 4.48876 45.8208 4.65689C45.7523 4.82506 45.6512 4.97781 45.5228 5.10614C45.3949 5.23447 45.2422 5.33582 45.0743 5.4042C44.9065 5.47263 44.7269 5.50664 44.5456 5.5043H37.0767ZM66.8525 21.4133C70.5132 24.2502 68.8477 26.7439 66.9566 28.5511C68.8477 30.3584 68.7175 33.3299 70.8949 35.5021C79.6302 42.453 68.852 46.4585 69.9623 55.825C69.9645 56.0066 69.9307 56.1864 69.8626 56.3545C69.7941 56.5227 69.693 56.6756 69.5646 56.8042C69.4367 56.9323 69.284 57.0336 69.1161 57.1022C68.9483 57.1704 68.7687 57.2043 68.5874 57.2021H65.8419C65.6606 57.2043 65.481 57.1704 65.3132 57.1022C65.1453 57.0336 64.9926 56.9323 64.8643 56.8042C64.7363 56.6756 64.6352 56.5227 64.5667 56.3545C64.4986 56.1864 64.4648 56.0066 64.4669 55.825C63.3566 46.4585 74.1349 42.4704 65.3995 35.5021C63.4867 33.5949 62.4935 31.3141 60.0863 31.3141H55.7099C55.8717 34.2104 57.0688 36.41 59.3012 37.9132C61.6143 38.9298 61.8659 40.3692 60.0559 42.2315C58.8835 45.1074 57.4305 47.8605 55.7186 50.451V55.825C55.7086 56.1873 55.5607 56.5318 55.3048 56.7877C55.0493 57.044 54.7054 57.1921 54.3436 57.2021H51.5981C51.4168 57.2043 51.2372 57.1704 51.0694 57.1022C50.9015 57.0336 50.7489 56.9323 50.6205 56.8042C50.4925 56.6756 50.3915 56.5227 50.3229 56.3545C50.2548 56.1864 50.221 56.0066 50.2232 55.825C49.269 52.4855 49.9035 49.5895 52.1273 47.1363C53.9979 44.7564 55.0875 41.8547 55.2458 38.8298C53.8926 37.7351 52.5406 36.6389 51.1904 35.5412C50.3737 33.5615 50.0393 31.4157 50.2145 29.281C50.4596 27.7791 50.1889 26.2384 49.4468 24.9105C48.7615 21.7739 46.7607 19.5308 43.4439 18.1811C44.1379 16.5853 44.8332 14.9924 45.5302 13.4023C49.8966 10.9463 51.458 7.39553 50.2145 2.74998C50.2201 2.02239 50.5112 1.32622 51.0247 0.811725C51.5387 0.297233 52.2335 0.00568007 52.96 0H60.0863C65.1089 0.212873 70.639 4.43559 69.2857 9.99202C63.3479 15.0228 61.0318 15.7179 66.8525 21.4133ZM63.7903 9.99202C65.7725 7.49836 62.4891 5.52168 60.0863 5.52168H55.7099C56.8506 11.6038 51.0559 11.0998 49.5335 15.6701C48.3625 19.176 53.333 22.4994 55.7099 25.8142H60.0863C62.4935 25.8142 64.4669 23.8375 61.3571 21.4307C55.5364 15.7179 57.8482 15.0228 63.7903 9.99202ZM93.6572 1.37716C94.0302 6.59039 93.5617 7.62434 91.2456 11.3952C87.6716 17.208 85.1994 15.783 90.5516 21.4133C96.1598 24.8323 90.2784 29.8327 86.5309 30.9709C86.4529 34.0033 87.5992 36.2551 89.9704 37.7264C92.3126 38.6908 92.6279 40.1389 90.916 42.0707C89.8581 45.0418 88.3812 47.8461 86.5309 50.3989V55.8467C86.521 56.2081 86.3739 56.5522 86.1189 56.8081C85.8638 57.064 85.5212 57.213 85.1603 57.2239H82.4105C82.2292 57.226 82.0496 57.1921 81.8817 57.1239C81.7139 57.0553 81.5612 56.9541 81.4328 56.8255C81.3049 56.6973 81.2038 56.5444 81.1353 56.3763C81.0672 56.2081 81.0334 56.0283 81.0355 55.8467C81.0355 54.0308 81.0355 52.2148 81.0355 50.3989C82.8828 47.8453 84.3579 45.041 85.4162 42.0707C87.1251 40.1505 86.8098 38.7024 84.4707 37.7264C82.0995 36.2522 80.9531 34.0004 81.0312 30.9709C76.3165 29.5938 74.1349 24.5456 70.7127 21.4133C65.3604 15.7657 67.8327 17.208 71.4067 11.3952C73.7228 7.62434 74.1912 6.5817 73.8226 1.37716C73.8312 1.01469 73.9791 0.669504 74.235 0.413123C74.491 0.156742 74.8358 0.00881774 75.1975 0H77.9474C78.3091 0.00986677 78.653 0.158128 78.9085 0.414287C79.1644 0.670447 79.3123 1.01503 79.3223 1.37716C79.691 6.59039 79.2225 7.62434 76.9064 11.3952C73.3325 17.208 70.8602 15.783 76.2124 21.4133C79.318 23.8201 81.2958 25.7968 83.7854 25.7968C86.1883 25.7968 88.1618 23.8201 85.0562 21.4133C79.704 15.7657 82.1763 17.208 85.7502 11.3952C88.0663 7.62434 88.5348 6.5817 88.1618 1.37716C88.1717 1.01503 88.3196 0.670447 88.5755 0.414287C88.831 0.158128 89.175 0.00986677 89.5367 0H92.2866C92.6479 0.00991404 92.9914 0.158321 93.2464 0.414589C93.5014 0.670855 93.6485 1.01542 93.6572 1.37716ZM15.4075 81.2655C16.6436 80.1707 17.6152 79.6407 19.0378 78.5546C21.9568 76.3216 19.3067 74.3015 16.9038 74.3015C14.501 74.3015 13.1998 76.3216 10.2807 78.5546C2.99837 85.0712 6.32944 83.4594 10.3241 89.585C12.5492 92.9953 12.1154 93.3689 12.5231 97.4048C12.3577 99.3302 12.708 101.265 13.5381 103.009L17.2161 106.715C18.6214 110.625 15.1602 113.448 12.9872 116.072C11.5863 118.588 14.4966 120.495 16.8908 120.495C19.285 120.495 20.3303 118.588 21.7313 116.072C22.473 114.743 23.2754 114.044 24.5289 112.675C25.2879 111.845 26.3809 111.202 27.1573 111.202H29.9028C30.6748 111.202 30.7703 111.845 30.0199 112.675C28.7708 114.044 27.9684 114.743 27.2267 116.072C26.3115 121.36 22.3992 126.065 16.8908 125.999C11.8856 125.943 6.62438 121.633 7.47883 116.072C9.6475 113.466 13.1174 110.62 11.7077 106.715L8.02967 103.009C7.19964 101.265 6.84927 99.3302 7.01474 97.4048C6.60703 93.3819 7.04076 93.0083 4.81571 89.585C0.821033 83.4594 -2.51003 85.0755 4.77234 78.5546C8.52847 74.4188 10.5713 68.6973 16.9038 68.7972C20.1915 68.8493 30.3149 74.3754 24.5289 78.5546C23.1106 79.6407 22.139 80.1707 20.9029 81.2655C20.0831 81.991 19.1679 82.5688 18.3915 82.5688H15.6417C14.8696 82.5732 14.5877 81.991 15.4075 81.2655ZM48.1239 78.6328C40.9109 85.1885 44.3548 83.5246 48.3278 89.6458C50.5268 93.0344 50.0627 93.4427 50.4704 97.4309C50.9649 102.301 53.8492 103.005 55.1807 106.719C56.5687 110.603 53.0945 113.453 50.9388 116.055C50.041 121.368 46.1374 126.056 40.5987 125.986C35.563 125.925 30.2498 121.668 31.1042 116.059C33.2729 113.453 36.7428 110.607 35.3461 106.723C34.0146 103.009 31.1346 102.305 30.6401 97.4352C30.2324 93.4471 30.6922 93.0387 28.4715 89.6501C24.4985 83.5289 21.0547 85.1928 28.2676 78.6372C32.8739 74.7533 33.8194 68.7842 40.577 68.7972C43.8777 68.8059 54.1138 74.5144 48.1239 78.6328ZM42.6285 78.6328C45.6863 76.3173 43.0015 74.2885 40.5987 74.2885C38.109 74.2885 36.8469 76.3086 33.7847 78.6328C26.5717 85.1885 30.0156 83.5246 33.9886 89.6458C36.1876 93.0344 35.7235 93.4427 36.1572 97.4309C36.6473 102.301 39.5317 103.005 40.8632 106.719C42.2555 110.603 38.777 113.453 36.6213 116.055C35.2204 118.571 38.1307 120.478 40.6203 120.478C43.0232 120.478 44.0642 118.571 45.4651 116.055C47.6338 113.449 51.1037 110.603 49.707 106.719C48.3755 103.005 45.4912 102.301 44.9967 97.4309C44.5933 93.4427 45.0531 93.0344 42.8541 89.6458C38.8594 83.5289 35.4155 85.1928 42.6285 78.6328ZM72.6775 78.6328C65.4645 85.1885 68.9084 83.5246 72.8814 89.6458C75.0804 93.0344 74.6163 93.4427 75.05 97.4309C75.5401 102.301 78.4245 103.005 79.756 106.719C81.1483 110.603 77.6698 113.453 75.5141 116.055C74.6206 121.364 70.7084 126.047 65.1739 125.982C60.1383 125.921 54.8294 121.664 55.6795 116.055C57.8482 113.449 61.3181 110.603 59.9214 106.719C58.5899 103.005 55.7099 102.301 55.2154 97.4309C54.8121 93.4427 55.2718 93.0344 53.0685 89.6458C49.0955 83.5246 45.6516 85.1885 52.8646 78.6328C57.4708 74.749 58.4164 68.7798 65.1739 68.7929C68.4356 68.8059 78.6674 74.5144 72.6775 78.6328ZM67.1821 78.6328C70.2443 76.3173 67.5551 74.2885 65.1523 74.2885C62.6626 74.2885 61.4005 76.3086 58.3383 78.6328C51.1253 85.1885 54.5692 83.5246 58.5422 89.6458C60.7455 93.0344 60.2771 93.4427 60.7108 97.4309C61.2053 102.301 64.0853 103.005 65.4168 106.719C66.8091 110.603 63.3349 113.453 61.1749 116.055C59.774 118.571 62.6843 120.478 65.1739 120.478C67.5768 120.478 68.6178 118.571 70.0187 116.055C72.1874 113.449 75.6572 110.603 74.2606 106.719C72.9291 103.005 70.0491 102.301 69.5546 97.4309C69.1469 93.4427 69.6067 93.0344 67.4077 89.6458C63.413 83.5289 59.9692 85.1928 67.1821 78.6328ZM93.9998 121.855V124.605C94.0028 124.786 93.9694 124.966 93.9013 125.134C93.8337 125.303 93.7331 125.455 93.6051 125.584C93.4772 125.712 93.3249 125.813 93.1575 125.882C92.9896 125.95 92.8101 125.984 92.6292 125.982H82.4972C82.1346 125.987 81.7746 125.919 81.4385 125.783C81.1028 125.647 80.7974 125.444 80.5411 125.187C80.2848 124.93 80.0822 124.624 79.946 124.288C79.8098 123.951 79.7421 123.591 79.7474 123.228C78.7268 119.995 79.3236 117.244 81.5387 114.973C83.3395 112.8 84.5115 110.173 84.9261 107.379L80.9228 103.152C79.9616 101.138 79.5556 98.9032 79.7474 96.6793C79.9495 95.1861 79.7252 93.6665 79.1011 92.2958C78.5806 89.0289 76.5984 86.6686 73.1546 85.2145C73.6981 83.6536 74.2389 82.0922 74.7768 80.5313C79.4034 78.3448 81.0603 74.8923 79.7474 70.1744C79.7573 69.8121 79.9052 69.4675 80.1611 69.2117C80.4166 68.9553 80.7606 68.8072 81.1223 68.7972H83.8721C84.2287 68.8215 84.5644 68.9745 84.8173 69.2277C85.0701 69.481 85.2228 69.8173 85.2471 70.1744C86.4411 74.4896 85.0172 77.7727 80.9748 80.023C80.0293 81.471 79.085 82.9194 78.1425 84.3674C78.1729 85.2797 84.7049 92.3393 85.2471 95.3108C85.2267 97.3818 85.2701 99.454 85.3772 101.528L88.8904 105.555C91.6924 111.42 86.4919 114.283 85.2471 120.465H92.6205C92.9862 120.472 93.3345 120.622 93.5917 120.883C93.8489 121.143 93.9955 121.493 93.9998 121.859V121.855Z" fill="#010101"/>
</svg>
