<svg width="137" height="137" viewBox="0 0 137 137" fill="none" xmlns="http://www.w3.org/2000/svg">
<path fill-rule="evenodd" clip-rule="evenodd" d="M68.5 137C106.332 137 137 106.332 137 68.5C137 68.4613 137 68.4227 137 68.384C136.94 68.4483 106.295 101.38 68.5 101.38C30.6685 101.38 1.83106e-06 68.3839 1.83106e-06 68.3839C1.83106e-06 68.3839 30.6685 34.25 68.5 34.25C106.295 34.25 136.94 68.3172 137 68.3838C136.937 30.6057 106.293 0 68.5 0C30.6685 0 0 30.6685 0 68.5C0 106.332 30.6685 137 68.5 137Z" fill="#C9BADA"/>
<circle cx="68.5" cy="68.5" r="67.5" stroke="black" stroke-width="2"/>
<path d="M2.09478 69.0906C1.81314 68.8121 1.57368 68.5713 1.37778 68.3721C1.57589 68.1636 1.81937 67.9102 2.10673 67.6163C3.00852 66.6939 4.34204 65.3725 6.0614 63.7852C9.50109 60.6097 14.4797 56.3747 20.6302 52.1406C32.9501 43.6596 49.8743 35.25 68.5 35.25C87.1257 35.25 104.05 43.6596 116.37 52.1406C122.52 56.3747 127.499 60.6097 130.939 63.7852C132.658 65.3725 133.991 66.6939 134.893 67.6163C135.181 67.9102 135.424 68.1636 135.622 68.3721C135.426 68.5713 135.187 68.8121 134.905 69.0906C134.004 69.9821 132.67 71.2592 130.951 72.7934C127.512 75.8628 122.533 79.9565 116.383 84.0494C104.064 92.247 87.1353 100.38 68.5 100.38C49.8647 100.38 32.9359 92.247 20.6172 84.0494C14.4666 79.9565 9.48823 75.8628 6.0489 72.7934C4.32972 71.2592 2.99638 69.9821 2.09478 69.0906Z" stroke="black" stroke-width="2"/>
<circle cx="68.5" cy="68.5" r="25.03" fill="#85BF8F" stroke="black" stroke-width="2"/>
<circle cx="68.5" cy="68.5" r="12.33" fill="black"/>
</svg>
