<svg width="146" height="146" viewBox="0 0 146 146" fill="none" xmlns="http://www.w3.org/2000/svg">
<path d="M136.86 82.7091C120.566 91.4511 85.1614 110.319 79.4791 112.456C72.0484 115.249 57.6484 117.094 45.2396 121.489C32.8309 125.885 22.0005 130.304 14.2056 130.79C10.4902 131.033 6.6292 129.916 3.59379 128.702C2.67103 126.71 2.11251 124.501 1.91824 122.267C4.83224 123.092 10.3445 124.355 15.1284 123.554C22.0248 122.412 31.3739 116.949 36.5219 116.366C41.67 115.783 55.6572 111.388 61.728 109.858C67.7745 108.328 93.7819 98.8089 99.1243 92.9566C104.467 87.0801 108.765 73.2629 119.474 66.5121C123.82 63.7681 129.576 65.7593 134.845 69.0619C135.282 75.2784 135.112 78.4838 136.86 82.7091Z" fill="#FF378C"/>
<path d="M144.291 101.019C144.145 108.571 119.838 112.602 95.7972 119.231C89.1193 121.077 48.3234 132.514 20.5919 136.302C17.8721 136.666 12.0441 137.395 7.60029 133.971C5.87618 132.635 4.51631 130.79 3.54498 128.702C6.58039 129.94 10.4657 131.033 14.1568 130.79C21.9517 130.304 32.7821 125.885 45.1908 121.489C57.5996 117.094 71.9996 115.249 79.4303 112.456C85.1126 110.319 120.542 91.451 136.812 82.709C136.933 82.9761 137.055 83.2675 137.176 83.5346C138.244 85.8172 139.07 86.7157 140.6 90.0668C140.891 90.5525 144.364 98.1046 144.291 101.019Z" fill="#009D6F"/>
<path d="M59.8095 69.4505C59.858 73.8458 62.7235 75.9827 61.2908 79.8681C60.9022 80.9122 56.167 87.3473 54.6128 88.95C54.2729 89.29 53.8601 89.8485 53.3258 90.5527C52.5245 91.5969 51.4803 92.9567 50.0962 94.3652C48.542 95.9436 46.5265 97.6191 43.9525 99.0033C42.4712 99.8046 40.7714 100.533 38.8773 101.092C36.7646 101.723 34.4091 102.136 31.738 102.282C31.4223 102.306 31.1309 102.306 30.8152 102.33C30.0139 102.354 28.8483 102.622 27.4641 103.01C25.91 103.447 24.113 104.054 22.2675 104.686C20.8105 105.171 19.3292 105.681 17.9451 106.118C15.0554 107.017 12.5542 107.648 11.4129 107.332C10.4415 107.065 9.93159 106.021 9.71304 104.71C11.51 103.326 13.477 102.209 15.541 101.165C16.7795 100.533 18.0665 99.9503 19.3535 99.319C20.7862 98.639 22.2189 97.9348 23.6759 97.1578C24.113 96.9149 24.7687 96.575 25.57 96.1136C26.5656 95.5551 27.7798 94.8266 29.1397 93.9281C30.6695 92.9325 32.3936 91.7183 34.1663 90.2856C35.4048 89.3143 36.6432 88.2215 37.9059 87.0316C39.0715 85.9146 40.2371 84.7247 41.3785 83.4377C42.3012 82.3935 43.1997 81.2765 44.0739 80.0866C44.9481 78.8967 45.7737 77.6583 46.5265 76.347C46.7693 75.9099 47.0122 75.4971 47.2307 75.0842C47.9835 73.7001 48.5663 72.4131 49.1005 71.1746C49.4891 70.2519 49.8533 69.3534 50.2176 68.4792C50.4361 67.9207 50.6304 67.4836 50.6547 67.4107C51.626 65.031 51.9903 62.7969 52.8645 60.6114C53.8115 58.2559 54.4429 56.6289 56.0213 55.9004C57.5754 55.1719 59.1781 55.6576 60.7808 56.1676C61.995 56.5561 64.0833 57.2117 65.7832 58.4502C62.2621 60.83 59.7609 65.2738 59.8095 69.4505Z" fill="#FF378C"/>
<path d="M129.77 62.1656C125.374 61.0485 120.421 53.205 119.449 48.8826C118.866 46.3086 121.392 40.9905 123.529 37.1295C122.946 36.8867 122.363 36.7167 121.805 36.6195C120.299 36.3524 119.036 36.4981 118.429 36.571C115.685 36.9352 113.767 38.1494 112.14 39.5821C109.444 41.9619 107.648 44.0988 106.361 45.9929C105.656 47.0371 105.146 47.8627 104.758 48.5669C103.762 50.4125 103.107 51.6995 102.912 52.1123C101.31 55.3177 96.7686 57.0418 94.1703 58.0131C91.402 59.0573 87.5895 60.49 83.1214 59.5673C79.9403 58.9116 79.746 57.746 76.1521 57.0418C74.3794 56.7018 71.0526 56.0462 67.7986 57.3575C67.0944 57.6489 66.4145 58.0131 65.7831 58.4502C62.262 60.83 59.7609 65.2738 59.8094 69.4506C59.858 73.8458 62.7234 75.9828 61.2907 79.8681C60.9022 80.9123 56.1669 87.3473 54.6128 88.95C54.2728 89.29 53.86 89.8485 53.3258 90.5527C52.5244 91.5969 51.4803 92.9568 50.0961 94.3652C48.542 95.9436 46.5265 97.6192 43.9524 99.0033C42.4712 99.8047 40.7713 100.533 38.8772 101.092C36.7646 101.723 34.4091 102.136 31.7379 102.282C31.4223 102.306 31.1309 102.306 30.8152 102.33C30.0138 102.354 28.8482 102.622 27.4641 103.01C25.91 103.447 24.113 104.054 22.2675 104.686C20.8105 105.171 19.3292 105.681 17.945 106.118C15.0553 107.017 12.5541 107.648 11.4128 107.332C10.4415 107.065 9.93155 106.021 9.713 104.71C7.67321 106.288 5.85196 108.231 4.39496 110.854C3.3265 112.748 2.69513 114.399 2.33088 115.929C1.84522 117.944 1.7238 120.106 1.91807 122.242C4.83206 123.068 10.3444 124.331 15.1282 123.529C22.0246 122.388 31.3737 116.924 36.5218 116.342C41.6698 115.759 55.657 111.364 61.7278 109.834C67.7744 108.304 93.7818 98.7848 99.1241 92.9325C104.466 87.056 108.765 73.2388 119.473 66.488C123.82 63.744 129.575 65.7352 134.845 69.0377V68.9406C134.845 68.9406 134.651 66.2694 133.995 62.287C132.781 62.5055 131.324 62.5541 129.77 62.1656Z" fill="#8D41E5"/>
<path d="M32.0778 105.269C31.6407 106.094 30.548 106.653 29.6495 106.459C28.8724 106.289 28.3139 105.56 27.464 103.01C27.3183 102.598 27.1726 102.16 27.0269 101.65C26.6141 100.266 26.0798 98.4208 25.5699 96.1625C25.6185 95.8711 25.7399 95.264 26.1527 94.7055C26.3712 94.4141 26.784 93.8555 27.5611 93.6856C28.3382 93.5156 28.9453 93.8798 29.1395 93.977C30.4023 98.785 31.155 100.801 31.5193 101.699C31.5921 101.893 31.6893 102.088 31.7621 102.282C32.1992 103.399 32.5392 104.394 32.0778 105.269Z" fill="#FFD800"/>
<path d="M45.0695 102.864C44.9966 103.107 44.5353 104.686 43.3211 105.001C42.4226 105.244 41.5727 104.637 41.1113 104.321C40.0186 103.544 39.5329 102.597 38.8773 101.092C38.683 100.63 38.4644 100.12 38.2216 99.5377C37.2746 97.3522 38.1488 99.6105 36.1818 95.1424C35.6233 93.8554 34.9191 92.2284 34.142 90.3343C34.0934 90.0672 34.0206 89.193 34.5548 88.3188C34.7005 88.0759 35.1862 87.2989 36.1818 87.0075C36.9832 86.7646 37.6631 86.9832 37.9059 87.0803C39.9214 92.107 41.6213 94.6081 42.4226 96.2351C43.0054 97.3764 43.5154 98.2749 43.9767 99.0277C44.8995 100.606 45.4337 101.553 45.0695 102.864Z" fill="#FFD800"/>
<path d="M54.2731 93.5639C54.2488 93.8796 54.1517 95.5551 53.3261 95.9437C52.7433 96.2108 51.7719 95.9194 50.0964 94.341C48.2266 92.5926 45.4583 89.29 41.3544 83.4378C41.3301 83.0978 41.3301 82.515 41.6215 81.8836C42.2772 80.4752 43.8313 80.1352 44.0255 80.111C45.4097 81.6165 47.3281 83.802 49.7807 86.4732C51.3591 88.173 52.549 89.4115 53.3018 90.5528C54.006 91.5484 54.3217 92.4712 54.2731 93.5639Z" fill="#FFD800"/>
<path d="M62.2864 84.5305C62.7478 85.9632 62.3593 87.9058 61.3394 88.3672C60.4894 88.7557 59.0082 88.2458 55.8756 84.749C53.6658 82.2721 50.7518 78.8239 47.4979 74.38C47.4008 74.1372 47.0851 73.2873 47.425 72.2917C47.9107 70.859 49.3434 70.4219 49.4648 70.3733C52.3303 72.923 54.2972 75.1814 55.5842 76.8569C57.5026 79.3095 57.7211 80.1352 59.4453 81.5922C60.8537 82.8063 61.8493 83.2434 62.2864 84.5305Z" fill="#FFD800"/>
<path d="M133.995 62.2869C132.781 62.5054 131.324 62.554 129.77 62.1655C125.374 61.0484 120.421 53.2049 119.449 48.8825C118.866 46.3085 121.392 40.9904 123.529 37.1294C123.82 37.2508 124.136 37.3965 124.427 37.5665C126.491 38.7807 127.487 40.6748 127.997 41.7189C131.324 48.5911 133.096 56.726 133.995 62.2869Z" fill="#FFD800"/>
<path d="M132.416 95.8707C131.008 93.5152 121.538 99.3675 103.762 105.293C102.062 105.851 97.7157 107.284 97.6185 109.445C97.57 110.611 98.7599 111.533 98.9056 111.631C100.945 113.16 104.102 112.068 105.826 111.509C118.138 107.454 118.551 109.858 123.65 106.482C128.24 103.496 133.582 97.8134 132.416 95.8707Z" fill="#FF378C"/>
</svg>
