<svg width="72" height="97" viewBox="0 0 72 97" fill="none" xmlns="http://www.w3.org/2000/svg">
<path d="M21.2029 97C19.5 93.5 19.5 89 21.2029 87C31.1771 87 51.5 87.1429 51.5 88C53.8938 91.7143 53.1204 95.5714 52.6217 97H21.2029Z" fill="#FF00C7"/>
<path d="M2 14L5.5 29.5L10 54L6.5 67.5L11 79.5L19.5 86.5L38.5 88.5L52.5 86.5L65.5 77L69 64.5L68 57.5L69.5 43.5L68 38L63 35L56.5 36.5L55 34L50 30.5L44 31.5L47 10.5L46 4.5L40 2L34 4.5L25 39L14 7L10 4.5L3.5 7L2 14Z" fill="white"/>
<path d="M71.7348 42.536C71.7348 36.796 67.6548 33.866 63.8448 33.576C61.8648 33.426 59.7748 33.996 58.1448 35.286C56.9848 31.526 53.5448 29.246 50.0548 28.846C48.7548 28.696 47.5248 28.806 46.3948 29.106C47.7448 21.746 49.0748 13.946 49.4648 11.106C50.3348 4.88601 46.0648 0.79601 41.6048 0.10601C37.1248 -0.58399 31.7348 2.04601 30.4848 9.41601C30.4548 9.58601 27.5748 24.886 25.4348 35.566C23.5348 28.356 20.8848 19.396 19.2348 13.816C18.5648 11.536 18.0348 9.75601 17.7548 8.77601C16.2048 3.23601 10.8948 1.44601 6.69484 2.58601C2.42484 3.73601 -1.34516 8.18601 0.464838 15.236C0.754838 16.686 6.28484 44.036 8.43484 53.876C7.60484 54.856 6.86484 55.946 6.27484 57.176C6.21484 57.296 6.16484 57.426 6.13484 57.566C3.93484 62.326 3.04484 70.276 7.58484 77.536C11.2048 83.326 19.3748 90.216 37.7848 90.216H37.9648C50.0748 90.186 58.9648 87.136 64.4048 81.136C69.8348 75.146 71.8348 66.656 70.7048 54.446C71.8548 49.136 71.7348 43.116 71.7248 42.536H71.7348ZM49.5648 33.216C51.3448 33.416 54.3148 34.716 54.1748 38.266C54.1748 38.366 53.5748 48.586 52.4248 55.416C51.9548 58.186 50.5348 60.026 48.6148 60.336C48.4848 60.356 48.3548 60.396 48.2348 60.436C47.4948 58.096 45.7148 55.896 43.1248 54.186C43.0648 49.426 44.3548 39.996 45.1248 35.926C45.1248 35.926 45.1248 35.916 45.1248 35.906C45.5648 33.596 47.7948 33.016 49.5648 33.216ZM4.77484 14.316C4.77484 14.316 4.75484 14.236 4.74484 14.196C3.57484 9.69601 5.58484 7.43601 7.85484 6.82601C10.0748 6.22601 12.7448 7.11601 13.5448 9.96601C13.8248 10.956 14.3548 12.756 15.0348 15.066C16.8548 21.236 19.9148 31.566 21.7848 38.986C22.2248 40.736 23.7548 41.926 25.5948 41.876C27.3948 41.836 28.8948 40.576 29.2548 38.806C31.4148 28.166 34.7548 10.406 34.7948 10.186C35.6048 5.37601 38.5948 4.08601 40.9248 4.44601C43.3748 4.82601 45.5948 7.02601 45.1048 10.496C44.5848 14.176 42.4048 26.756 40.7848 35.076C40.1348 38.526 39.0048 46.446 38.7548 51.936C32.6748 49.336 23.0848 46.756 15.3548 49.286C14.2348 49.656 13.1948 50.126 12.2348 50.676C9.79484 39.246 4.80484 14.556 4.75484 14.286L4.77484 14.316ZM61.1748 78.196C56.6048 83.236 48.7948 85.806 37.9748 85.836H37.8048C21.4148 85.836 14.3548 80.066 11.3248 75.226C7.86484 69.686 8.29484 63.176 10.2548 59.176C10.3148 59.066 10.3548 58.946 10.3848 58.816C11.7448 56.196 13.8248 54.446 16.7448 53.496C23.4448 51.296 33.2948 53.886 39.6048 57.206C43.2648 59.136 44.5248 61.766 44.1548 63.526C43.7648 65.376 41.6048 66.606 38.3548 66.836C33.4648 67.176 28.1248 65.646 22.0448 62.156C20.9948 61.556 19.6548 61.916 19.0548 62.966C18.4548 64.016 18.8148 65.356 19.8648 65.956C26.7248 69.896 32.8848 71.606 38.6648 71.206C43.8848 70.836 47.4948 68.376 48.3948 64.616C48.6848 64.696 48.9948 64.716 49.3048 64.666C51.5848 64.296 54.1648 62.736 55.6848 59.546C56.8448 60.946 58.5948 61.926 60.7048 62.226C61.1248 62.286 61.5448 62.316 61.9748 62.316C63.5448 62.316 65.1848 61.906 66.6248 61.026C66.5748 68.646 64.7948 74.196 61.1648 78.196H61.1748ZM66.1648 54.666C65.4248 57.456 63.1048 58.146 61.3448 57.896C60.0348 57.706 58.5248 56.906 58.5648 55.276C58.6448 52.476 59.0648 45.136 59.7148 40.856C60.0448 38.686 61.7148 37.936 63.1848 37.936C63.2948 37.936 63.4048 37.936 63.5148 37.946C65.2948 38.086 67.3648 39.376 67.3548 42.556C67.3548 42.576 67.3548 42.606 67.3548 42.626C67.3548 42.696 67.5348 49.556 66.1648 54.666Z" fill="black"/>
</svg>
